# xmcd CD database file
#
# Track frame offsets:
#	150
#	30027
#	57508
#	84047
#	118026
#	159848
#	202924
#	229696
#	263998
#	286302
#
# Disc length: 4210 seconds
#
# Revision: 0
# Processed by: cddbd v1.5.2PL0 Copyright (c) Steve Scherf et al.
# Submitted via: CDex 1.75
#
DISCID=7210700a
DTITLE=Burak Bedikyan - Leap of Faith
DYEAR=2015
DGENRE=Jazz
TTITLE0=Astral Travel
TTITLE1=Prelude No. 1 Birth Of Innocense
TTITLE2=Hommage A Bud Et Francis
TTITLE3=Ashes To Ashes
TTITLE4=Leap Of Faith
TTITLE5=Hydrogen Atom
TTITLE6=Prelude No. 2 Lonely Planet
TTITLE7=The Unspoken
TTITLE8=Der Zor (Deir Ez-Zor)
TTITLE9=Gravity
EXTD=YEAR: 2015
EXTT0=
EXTT1=
EXTT2=
EXTT3=
EXTT4=
EXTT5=
EXTT6=
EXTT7=
EXTT8=
EXTT9=
PLAYORDER=
